<svg id="Logo" xmlns="http://www.w3.org/2000/svg" viewBox="0 0 301.3 148.12"><defs><style>.cls-1{fill:#f39200;}.cls-2{fill:#0b0e1e;}</style></defs><title>logo</title><rect class="cls-1" x="508.56" y="204.26" width="43.91" height="43.91" rx="21.95" ry="21.95" transform="translate(-376.89 -279.51) rotate(8.42)"/><path class="cls-1" d="M485.76,240.57l-4.36-.41a56.68,56.68,0,0,0-61.76,51.1l-3.82,40.43A15.71,15.71,0,0,0,430,348.81l31.38-1.94c30.88-4.28,61.68-19.74,65.19-57h0A45.25,45.25,0,0,0,485.76,240.57Z" transform="translate(-415.74 -204.26)"/><path class="cls-2" d="M517.62,342.51a78,78,0,0,1-4.3-8.16q-1-2.23-1.49-3.07a11.52,11.52,0,0,1-.55-1.11,1.54,1.54,0,0,0-.82-0.82q-3,3.14-6.53,6.6a63.57,63.57,0,0,1-7.61,6.3,44.55,44.55,0,0,1-8.46,4.7,26.34,26.34,0,0,1-8.94,2.08,9.43,9.43,0,0,1-7.93-3.11,25.32,25.32,0,0,1-4.78-8.19,45.68,45.68,0,0,1-2.47-9.94q-0.67-5.11-.84-8.38a32.08,32.08,0,0,1,1.53-12A25.79,25.79,0,0,1,470,298a26.17,26.17,0,0,1,9-6.22,34.2,34.2,0,0,1,11.89-2.58,15.1,15.1,0,0,1,8.29,1.81,20.91,20.91,0,0,1,6.27,5.4,36,36,0,0,1,4.46,7.42q1.82,4.05,3.14,7.84a10.74,10.74,0,0,0,2.87-3.5q1.63-2.72,3.38-6t3.35-6.59q1.6-3.29,2.49-5.33,0.39-.73,1.72-3.73t2.93-6.5q1.59-3.5,2.93-6.57t1.72-3.8a9.5,9.5,0,0,1,.65-1.1,9.81,9.81,0,0,0,.65-1.1,0.12,0.12,0,0,1-.15-0.14V267l0-.43a76,76,0,0,1-12.53-.38A29.68,29.68,0,0,1,512.29,263a20.6,20.6,0,0,1-7.62-7q-3-4.56-3.36-12.25c0-.28,0-1,0-2.14s0-1.9,0-2.28a4.7,4.7,0,0,1,1.44-2.43,5.75,5.75,0,0,1,2.48-1.33q1.25-.35,2,1.33a26.72,26.72,0,0,1,1.35,4.5q0.63,2.83,1.57,6.06a19.45,19.45,0,0,0,3,6.06,17.88,17.88,0,0,0,5.32,4.81,16.71,16.71,0,0,0,8.65,2l1.91,0q1.62,0,2.75-.06l2-.1q1.34-.07,2.67-0.2a10.88,10.88,0,0,0,2.52-.55,3.4,3.4,0,0,0,1.71-1.15q0.8-1,2.72-3.63t3.9-5.4q2-2.81,3.83-5.4t2.65-3.63a69.33,69.33,0,0,1,5.12-5.11,45.21,45.21,0,0,1,6-4.58,36,36,0,0,1,6.62-3.32,23.26,23.26,0,0,1,7.13-1.49,8.64,8.64,0,0,1,4.35.79,7.41,7.41,0,0,1,2.88,2.5,10.59,10.59,0,0,1,1.52,3.64,25.05,25.05,0,0,1,.56,4.18,13,13,0,0,1-1.69,7.36,21.83,21.83,0,0,1-5,5.81,38.24,38.24,0,0,1-6.78,4.47,73.65,73.65,0,0,1-7,3.2q-1.11.48-4,1.48t-6.32,2.24q-3.4,1.24-6.39,2.24a31.38,31.38,0,0,1-4.25,1.21q-0.94,1-2.07,2.53a13.26,13.26,0,0,0-1.64,2.65L527,302.84a0.58,0.58,0,0,0-.34.23l-0.33.37a2.94,2.94,0,0,1-.37,1.09q-0.38.8-.76,1.75t-0.76,1.82a4.58,4.58,0,0,0-.37,1q-0.39.59-1.37,2.28t-2.16,3.53q-1.18,1.84-2.16,3.46T517,320.61l0,0.43v0.28q1.17,3.66,2.07,6.25c0.6,1.73,3.53,8,4.82,9.43,8.55,9.72,16.07,3.69,21.12-.6,2.22-1.89,15.1-14.43,15.1-14.43,4.48,0.14-1.38,12.25-1.36,12.63s-6.49,7.23-7.87,8.63C540.05,354.23,522.89,351.19,517.62,342.51Zm-47.73-24.87q0.08,1.71.56,5.61a53.44,53.44,0,0,0,1.59,7.92,23.88,23.88,0,0,0,3.17,7.05,5.8,5.8,0,0,0,5.3,2.88,13.7,13.7,0,0,0,6.75-2,62.29,62.29,0,0,1,6.26-3.45l13.84-14.53,0-.57a25.4,25.4,0,0,0-1.53-6.63,42.88,42.88,0,0,0-3.71-8,27.56,27.56,0,0,0-5.27-6.52,8.56,8.56,0,0,0-6.2-2.48,31.74,31.74,0,0,0-8.62,1.56,17.82,17.82,0,0,0-6.66,3.9,17.56,17.56,0,0,0-4.21,6.34A21.15,21.15,0,0,0,469.89,317.64Zm107.79-84.23a17.37,17.37,0,0,0-6.7,1.76,31.85,31.85,0,0,0-6.3,4,48.72,48.72,0,0,0-5.53,5.27q-2.55,2.84-4.4,5.36a12.45,12.45,0,0,0-1.26,1.77q-0.72,1.18-1.45,2.14t-1.78,2.59l0,0.71,0.56,0q0.14,0,1.95-.67l4.23-1.56,4.93-1.81q2.5-.91,3.88-1.55,2.08-.81,4.77-2.16a31.25,31.25,0,0,0,5.07-3.18,19.28,19.28,0,0,0,4-4,7.6,7.6,0,0,0,1.45-4.92,5.18,5.18,0,0,0-.79-3A3.3,3.3,0,0,0,577.68,233.41Z" transform="translate(-415.74 -204.26)"/><path class="cls-2" d="M551,327.77c0.34-1.49.7-3.1,1-4.83s0.63-3.39.89-5,0.46-2.66.62-3.24q0.68-3.46,1.68-7.51a30.87,30.87,0,0,1,3-7.57,18.18,18.18,0,0,1,5.15-5.89,14.57,14.57,0,0,1,8.14-2.61,2.77,2.77,0,0,1,2.67,1.22,18.69,18.69,0,0,1,1.48,2.85q0,0.57.17,2.06c0.1,1,.15,1.68.17,2.06a44.15,44.15,0,0,1-.67,10.88A31,31,0,0,1,572,319.1a40.58,40.58,0,0,1-5.62,7.77q-3.35,3.67-7.68,7.73c-0.08.29-.2,0.77-0.35,1.44a6,6,0,0,0-.21,1.44v0.28a8.7,8.7,0,0,0,1,4.09,6.55,6.55,0,0,0,2.45,2.38,8,8,0,0,0,3.44,1,37.5,37.5,0,0,0,4.17,0c4.42-.22,9.08-0.41,12.52-2.88,6.34-4.55,24.18-20.5,24.49-21.68s0.58,10.94-1.36,12.51-12.41,12.36-22,16.24a42.86,42.86,0,0,1-7.18,2.06,36.92,36.92,0,0,1-5.82.86,27.87,27.87,0,0,1-12.6-1.88q-5.13-2.24-7.33-9.7A43.92,43.92,0,0,1,551,327.77Zm18-25.94a39.11,39.11,0,0,0-4.21,4.85,18.28,18.28,0,0,0-2.33,4.4,33.35,33.35,0,0,0-1.32,4.85q-0.51,2.59-1,6a30,30,0,0,0,4.23-4.49,23,23,0,0,0,2.67-4.56,20.88,20.88,0,0,0,1.45-5A49,49,0,0,0,569,301.84Z" transform="translate(-415.74 -204.26)"/><path class="cls-2" d="M597.18,326.34q0.53-2.24,1-4.83t0.89-5q0.38-2.37.62-3.24,0.68-3.46,1.68-7.51a30.87,30.87,0,0,1,3-7.57,18.18,18.18,0,0,1,5.15-5.89,14.58,14.58,0,0,1,8.14-2.61,2.77,2.77,0,0,1,2.67,1.22,18.69,18.69,0,0,1,1.48,2.85q0,0.57.17,2.06c0.1,1,.15,1.68.17,2.06a44.16,44.16,0,0,1-.67,10.88,31,31,0,0,1-3.24,8.87,40.58,40.58,0,0,1-5.62,7.77q-3.35,3.66-7.68,7.73c-0.08.29-.2,0.77-0.35,1.44a6,6,0,0,0-.21,1.44v0.28a8.7,8.7,0,0,0,1,4.09,6.55,6.55,0,0,0,2.45,2.38,7.6,7.6,0,0,0,3.44,1c7.77,0.32,11.1.6,16.77-2.46,21.42-11.58,27.36-31.59,31.3-34.22,0.38-.25,5.86,3.85,6.08,4.6s-15.83,16.81-15.79,17.57a10.28,10.28,0,0,1-1.61,6,20.62,20.62,0,0,1-4.69,5.23,37.17,37.17,0,0,1-6.72,4.25,68.94,68.94,0,0,1-7.55,3.49,55.32,55.32,0,0,1-7.17,1.8,36.92,36.92,0,0,1-5.82.86,27.88,27.88,0,0,1-12.6-1.88q-5.13-2.24-7.33-9.7S596.83,327.83,597.18,326.34Zm18-25.94a39.15,39.15,0,0,0-4.21,4.85,18.28,18.28,0,0,0-2.33,4.4,33.35,33.35,0,0,0-1.32,4.85q-0.51,2.59-1,6a30,30,0,0,0,4.23-4.49,23,23,0,0,0,2.67-4.56,20.88,20.88,0,0,0,1.45-5A49,49,0,0,0,615.2,300.4Z" transform="translate(-415.74 -204.26)"/><path class="cls-2" d="M646.53,347.4l3.4-28.72,1.7-23.07a2,2,0,0,1,1.52-.72c0.75-.08,1.27-0.13,1.55-0.15a5.76,5.76,0,0,1,2.65.66,2.34,2.34,0,0,1,1.58,2l0.48,9.68q0.54-.45,1.89-1.81t2.9-2.85q1.55-1.5,2.9-2.85a16.16,16.16,0,0,0,1.74-1.94,14.18,14.18,0,0,1,3.62-2.6,10.06,10.06,0,0,1,4.11-1.2,8.24,8.24,0,0,1,6.54,2.25,9.39,9.39,0,0,1,2.65,6.44,0.57,0.57,0,0,1-.05.36,0.55,0.55,0,0,0-.05.36l0,0.57-4.16,24.61,0.57,11.53a25.73,25.73,0,0,0,9-2.23,52.25,52.25,0,0,0,8.87-4.93,54.62,54.62,0,0,0,7.87-6.6,80.79,80.79,0,0,0,6.29-7.09l0.56,0a2.19,2.19,0,0,1,1.65.56,2.24,2.24,0,0,1,.71,1.61,11.08,11.08,0,0,1-1.74,6.29,28.22,28.22,0,0,1-4.93,6,50.09,50.09,0,0,1-7.08,5.49,73.39,73.39,0,0,1-8,4.53,56.81,56.81,0,0,1-7.69,3.09,26.31,26.31,0,0,1-6.44,1.31,7.76,7.76,0,0,1-4.28-.79,6.25,6.25,0,0,1-2.46-2.52,11.16,11.16,0,0,1-1.16-3.58,40.5,40.5,0,0,1-.42-4.26L672.77,335l4.14-27.9-0.23-4.7a10,10,0,0,0-6.55,3.32,32.52,32.52,0,0,0-5.57,7.55,75.17,75.17,0,0,0-6.48,16.31q-0.23,1-.67,3.6t-0.79,5.46q-0.35,2.87-.65,5.46t-0.38,3.73a1.19,1.19,0,0,1-.43,1.31,4.69,4.69,0,0,1-1.45.71,7.18,7.18,0,0,1-1.75.3l-1.48.07a7.92,7.92,0,0,1-2.56-.3,2,2,0,0,1-1.37-2.07Z" transform="translate(-415.74 -204.26)"/></svg>